<?xml version="1.0" encoding="UTF-8" standalone="no"?>
<svg
   version="1.1"
   width="949"
   height="256"
   viewbox="0 0 949 256"
   id="svg4"
   sodipodi:docname="logo.svg"
   inkscape:version="1.4.3 (0d15f75, 2025-12-25)"
   xmlns:inkscape="http://www.inkscape.org/namespaces/inkscape"
   xmlns:sodipodi="http://sodipodi.sourceforge.net/DTD/sodipodi-0.dtd"
   xmlns="http://www.w3.org/2000/svg"
   xmlns:svg="http://www.w3.org/2000/svg">
  <defs
     id="defs4" />
  <sodipodi:namedview
     id="namedview4"
     pagecolor="#ffffff"
     bordercolor="#000000"
     borderopacity="0.25"
     inkscape:showpageshadow="2"
     inkscape:pageopacity="0.0"
     inkscape:pagecheckerboard="0"
     inkscape:deskcolor="#d1d1d1"
     showgrid="true"
     inkscape:zoom="2.257821"
     inkscape:cx="499.59673"
     inkscape:cy="155.23817"
     inkscape:window-width="2560"
     inkscape:window-height="1566"
     inkscape:window-x="-11"
     inkscape:window-y="-11"
     inkscape:window-maximized="1"
     inkscape:current-layer="svg4">
    <inkscape:grid
       id="grid46"
       units="px"
       originx="0"
       originy="0"
       spacingx="1"
       spacingy="1"
       empcolor="#0099e5"
       empopacity="0.30196078"
       color="#0099e5"
       opacity="0.14901961"
       empspacing="5"
       enabled="true"
       visible="true" />
  </sodipodi:namedview>
  <path
     fill="#2366d1"
     d="M110.85125168440814 128L221.70250336881628 192L110.85125168440814 256L0 192Z"
     id="path1" />
  <path
     fill="#609dff"
     d="M110.85125168440814 64L221.70250336881628 128L110.85125168440814 192L0 128Z"
     id="path2" />
  <path
     fill="#a4c7ff"
     d="M110.85125168440814 0L221.70250336881628 64L110.85125168440814 128L0 64Z"
     id="path3" />
  <text
     xml:space="preserve"
     style="writing-mode:lr-tb;direction:ltr;fill:#000000;stroke-width:0.697;stroke-dasharray:none"
     x="410.69193"
     y="18.175632"
     id="text4"><tspan
       sodipodi:role="line"
       id="tspan4"
       x="410.69193"
       y="18.175632" /></text>
  <path
     d="m 335.15939,173.43922 q 12.40309,0 15.76964,-9.74528 2.12624,-6.02436 2.12624,-26.04649 V 70.847953 q 0,-4.961236 -0.88593,-6.378732 -0.35438,-0.708748 -2.48062,-1.417496 -1.94906,-0.708748 -7.97341,-1.417496 -6.02436,-0.708748 -13.82059,-0.708748 v -1.771869 h 70.16605 v 1.771869 q -14.70652,0 -20.3765,2.126244 l -1.59469,0.708748 q -1.24031,1.240309 -1.24031,7.08748 v 65.381997 q 0,17.18714 -10.8084,27.99555 -10.80841,10.80841 -28.88148,10.80841 -7.61904,0 -13.82059,-4.60686 -6.20154,-4.78405 -8.1506,-10.09966 -1.94906,-5.31561 -1.94906,-9.5681 0,-11.51716 8.50498,-16.3012 3.01218,-1.77187 6.55592,-1.77187 5.13842,0 8.85935,3.72092 3.72092,3.72093 3.72092,9.74529 0,5.49279 -4.25248,9.03653 -4.07531,3.36656 -9.21373,3.36656 -2.30343,0 -4.25249,-0.70875 -1.94905,-0.88594 -3.72092,-2.30343 -0.35438,1.77187 -0.35438,2.6578 0,6.02436 5.4928,10.63122 5.66998,4.60686 12.58028,4.60686 z M 461.13951,131.44591 444.83831,86.440409 428.5371,131.44591 Z m 0.88594,2.12624 h -34.37428 l -5.4928,15.59246 q -2.12624,5.84717 -2.12624,10.09965 0,6.55592 4.96123,9.39092 4.96124,2.83499 13.99778,2.83499 v 1.94905 h -44.82831 v -1.94905 q 12.2259,0 18.95901,-9.21373 3.72092,-5.13842 9.56809,-21.26244 l 29.94461,-83.277884 h 3.72092 L 494.45067,161.5677 q 2.6578,7.26466 5.31561,8.68216 2.6578,1.24031 15.94683,1.24031 v 1.94905 h -65.20482 v -1.94905 q 13.28903,0 18.25026,-0.88594 4.96124,-1.06312 4.96124,-4.0753 l -0.35438,-1.77187 z M 577.90559,67.835774 q 10.27685,-9.036536 11.69434,-10.099658 V 96.362881 L 588.00525,95.83132 Q 585.52463,80.238864 575.0706,69.784831 564.61657,59.153612 551.32754,59.153612 q -9.21372,0 -15.94683,4.252487 -8.32779,5.138423 -8.32779,15.060895 0,9.568098 9.03654,15.592456 7.61904,5.138423 24.4518,9.03654 21.794,5.31561 28.52711,10.09966 10.98559,7.97341 10.98559,26.57804 0,17.54152 -11.33996,27.10962 -9.5681,8.1506 -23.2115,8.1506 -10.45403,0 -18.78182,-3.36656 -8.1506,-3.36655 -14.17496,-11.16278 -10.63122,13.99778 -11.16278,14.52934 V 126.1303 l 1.59468,-0.17719 q 3.36655,15.23808 7.61904,24.4518 3.54374,7.79623 8.32779,12.93466 9.39091,10.09965 27.2868,10.09965 8.32779,0 15.23808,-5.49279 7.97341,-6.37873 7.97341,-15.94683 0,-11.69434 -10.8084,-18.42745 -7.44186,-4.60686 -26.04649,-9.5681 -18.42745,-5.13842 -25.69212,-10.45403 -10.63121,-7.97342 -10.63121,-23.211497 0,-13.643399 9.56809,-23.03431 9.74529,-9.568097 23.03431,-9.568097 11.33997,0 18.60464,3.366552 2.30343,1.063122 10.45403,6.733106 z m 79.55713,52.270166 h 17.89589 q 14.70652,0 20.55369,-7.61904 4.96124,-6.55592 4.96124,-20.908068 0,-15.060895 -6.55592,-22.857123 -6.55592,-7.796228 -20.19932,-7.796228 h -8.50498 q -3.72092,0 -5.49279,0.531561 -1.77187,0.531561 -2.30343,2.303431 -0.35438,1.594683 -0.35438,6.733106 z m 0,1.59468 v 39.86708 q 0,5.13842 0.70875,6.55591 0.35437,0.70875 2.48062,1.59469 2.12624,0.70875 8.32779,1.24031 6.20154,0.53156 17.00995,0.53156 v 1.94905 h -76.54478 v -1.94905 q 9.03653,0 14.8837,-0.53156 6.02436,-0.53156 8.15061,-1.24031 2.12624,-0.88594 2.48061,-1.59469 0.70875,-1.41749 0.70875,-6.55591 V 70.493579 q 0,-4.784049 -0.70875,-6.201545 -0.35437,-0.708748 -2.12624,-1.417496 -5.4928,-1.949057 -23.38868,-1.949057 v -1.771869 h 68.74855 q 21.08525,0 33.31116,9.745284 11.51715,9.213724 11.51715,24.097432 0,10.099662 -8.85935,18.427452 -10.98559,10.27684 -29.76741,10.27684 z m 112.15937,-7.61904 v 47.30893 q 0,4.96123 0.53156,6.20154 0.53156,1.24031 3.36655,2.30343 2.835,0.88594 6.55592,1.06313 3.72093,0.17718 13.28903,0.17718 20.19932,0 30.47616,-11.87153 10.45403,-12.04871 13.11184,-38.44957 h 2.12624 v 52.62453 H 723.90785 v -1.94905 q 15.76964,0 20.90806,-1.94906 1.77187,-0.70875 2.30343,-1.77187 0.70875,-1.24031 0.70875,-6.20154 V 70.847953 q 0,-5.138423 -0.70875,-6.378732 -0.35437,-0.708748 -2.30343,-1.417496 -1.94906,-0.708748 -7.97341,-1.417496 -6.02436,-0.708748 -12.93465,-0.708748 v -1.771869 h 109.32437 v 44.296748 h -2.12624 q 0,-13.643398 -6.91029,-26.046488 -9.21373,-16.478391 -26.04649,-16.478391 -6.73311,0 -13.6434,0.177187 -6.73311,0 -12.04872,1.594683 -1.59468,0.708748 -2.30343,1.949057 -0.53156,1.063122 -0.53156,6.201545 v 41.284567 q 18.42745,0 22.85712,-3.72092 6.73311,-5.66999 9.39091,-30.476167 h 1.94906 V 147.9243 h -1.94906 q -2.6578,-24.27462 -9.21372,-29.94461 -4.60686,-3.89811 -23.03431,-3.89811 z m 124.56252,-2.12624 H 910.663 q 12.93465,0 19.13619,-4.78405 7.44186,-5.66999 7.44186,-19.136198 0,-14.883708 -6.20155,-20.908066 -6.02435,-6.201545 -20.19931,-6.201545 h -8.50498 q -3.72093,0 -5.4928,0.531561 -1.77187,0.531561 -2.30343,2.303431 -0.35437,1.594683 -0.35437,6.733106 z m 71.76073,35.96896 v 5.84717 q 0,10.45403 -1.94906,14.52933 -3.18936,6.73311 -12.58027,6.73311 -12.22591,0 -16.12402,-9.21373 -3.18937,-7.44185 -3.18937,-28.34992 v -3.72092 q 0,-1.77187 0.17719,-3.72093 0,-9.39091 -4.42967,-12.58028 -4.42968,-3.36655 -12.75747,-3.36655 h -20.90806 v 47.48612 q 0,5.31561 0.53156,6.7331 0.70875,1.4175 2.6578,2.30343 2.12625,0.70875 8.32779,0.88594 6.37873,0.17718 13.28903,0.17718 v 1.77187 h -72.11511 v -1.94905 q 18.60463,0 22.32556,-1.4175 1.77187,-0.70875 2.48062,-1.94906 0.70875,-1.41749 0.70875,-6.55591 V 70.493579 q 0,-4.961236 -0.70875,-6.201545 -0.35437,-0.708748 -2.30343,-1.417496 -5.13842,-1.949057 -22.50275,-1.949057 v -1.771869 h 72.46948 q 19.1362,0 30.47616,10.276845 9.03654,8.150602 9.03654,16.832765 0,10.276846 -7.08748,16.832768 -8.50497,7.97341 -26.93242,10.09966 18.78182,3.72092 24.80618,21.08525 3.01218,8.68216 3.01218,26.22367 0,5.13843 0.88593,7.44186 0.88594,2.30343 4.25249,2.30343 3.72093,0 5.13842,-5.84717 1.4175,-6.02436 1.4175,-16.47839 z"
     id="text44"
     style="font-size:177.187px;line-height:0.5;font-family:'Modern No. 20';-inkscape-font-specification:'Modern No. 20, Normal';fill:#333333;stroke-width:1.286"
     transform="scale(0.90237412,1.1081878)"
     aria-label="JASPER" />
  <text
     xml:space="preserve"
     style="font-style:normal;font-variant:normal;font-weight:normal;font-stretch:normal;font-size:96px;line-height:0.5;font-family:'Modern No. 20';-inkscape-font-specification:'Modern No. 20, Normal';font-variant-ligatures:normal;font-variant-caps:normal;font-variant-numeric:normal;font-variant-east-asian:normal;writing-mode:lr-tb;direction:ltr;fill:#000000;stroke-width:0.697;stroke-dasharray:none"
     x="766.22546"
     y="149.70186"
     id="text45"><tspan
       sodipodi:role="line"
       id="tspan45"
       x="766.22546"
       y="149.70186" /></text>
  <text
     xml:space="preserve"
     style="font-style:normal;font-variant:normal;font-weight:normal;font-stretch:normal;font-size:96px;line-height:0.5;font-family:'Modern No. 20';-inkscape-font-specification:'Modern No. 20, Normal';font-variant-ligatures:normal;font-variant-caps:normal;font-variant-numeric:normal;font-variant-east-asian:normal;writing-mode:lr-tb;direction:ltr;fill:#000000;stroke-width:0.697;stroke-dasharray:none"
     x="440.69037"
     y="-42.961777"
     id="text46"><tspan
       sodipodi:role="line"
       id="tspan46"
       x="440.69037"
       y="-42.961777" /></text>
</svg>
