<svg xmlns="http://www.w3.org/2000/svg" width="1898" height="512"><path fill="#FEFEFE" d="M0 0h1898v512H0V0Z"/><path fill="#99C0FC" d="m402 26 20.8 12c10 6.2 20.2 12 30.5 17.6 6.6 3.6 13 7.4 19.5 11.4 5 3.1 10.2 6.1 15.3 9l3.4 2c8.1 4.7 16.4 9.3 24.6 13.8a391 391 0 0 1 23 13.6c7.4 4.6 15 8.7 22.7 12.8 8.3 4.4 16.4 9 24.5 14 4.7 2.9 9.7 5.4 14.7 7.8v3l-1.8 1a641 641 0 0 0-30.2 17c-3.6 2.2-7.2 4.2-10.9 6.2a103 103 0 0 0-9.6 5.8c-4 2.8-8.2 5-12.5 7.4l-9.8 5.5-1.8 1-9.3 5.4-2 1.1-3.6 2.2c-2.7 1.6-4.3 2.4-7.5 2.4v2l2.5.7c4.2 1.6 7.9 3.7 11.8 6l5 3 2.8 1.6 15.8 9.1 3.3 2 20.5 11.7 2.5 1.5 14 8 3.3 1.7 6 3.4 2.8 1.6 2.5 1.4c2.2 1.3 4.2 2.6 6.2 4.3v2l-3.3 1.7a494.5 494.5 0 0 0-31 17.5c-7.4 4.5-15 8.8-22.5 13A809.7 809.7 0 0 0 512 309l-2 1.2c-4.7 2.8-4.7 2.8-8 2.8a22 22 0 0 0 6.5 5l2 1 2.3 1.2c6.5 3.4 12.9 6.9 19.2 10.5l12.3 7c7.8 4.4 15.7 8.8 23.4 13.4A660.7 660.7 0 0 0 596 367l3 1.7 2 1.3v2l-2.9 1.6c-14.4 8-28.5 16.5-42.7 25-10 6-20.1 12-30.3 17.8l-3 1.8a36227 36227 0 0 1-26.6 15.7 738.5 738.5 0 0 0-26.7 15l-3.4 2a6264.6 6264.6 0 0 0-52 30.4l-1.7 1.1a471 471 0 0 0-4.9 3.2c-3.3 1.7-4.3 1.4-7.8.4-2.4-1.2-2.4-1.2-4.9-2.7l-2.8-1.7-3-1.8a4169 4169 0 0 0-6.5-3.8l-3.4-2c-5.4-3.2-11-6.3-16.5-9.3-7-4-14.1-8-21-12.2-14.4-8.7-29-16.9-43.6-25.1-8.4-4.7-16.6-9.5-24.8-14.4-7-4.2-14.1-8.2-21.2-12.3-10.5-6-20.9-12.1-31.2-18.3-6-3.6-12-7-18.1-10.4v-2l1.5-.8c16.2-8.8 32.1-18 48-27.4a1409 1409 0 0 1 16.9-9.7l2.6-1.5a1979 1979 0 0 1 18.8-10.7l2.4-1.3a605342373.2 605342373.2 0 0 0 4.3-2.4c1.8-1.2 1.8-1.2 2.5-4.2l-2.2-1c-7.5-3.8-14.7-7.8-22-12l-3-1.8-13.7-8.2c-6.1-3.6-12.4-7-18.6-10.5-7.2-4-14.3-8-21.3-12.2a419 419 0 0 0-9.8-5.7l-2-1-4.4-2.6c2.5-2.9 5.4-4.5 8.7-6.3l3.5-1.9 1.8-1 7.4-4 3.7-2a962.9 962.9 0 0 0 23.7-13.5 1353.6 1353.6 0 0 0 43.9-26l3-1.8c2.4-1.3 2.4-1.3 3.3-3.5l-2.3-.4c-2.7-.6-2.7-.6-5.7-1.6v-2l-2.6-.8a46 46 0 0 1-9.4-4.8l-3.5-2.2-1.8-1.1a22489.6 22489.6 0 0 1-39.7-22.6c-8.6-4.8-17.1-9.7-25.6-14.8l-2.3-1.3c-1.7-1-3.4-2.2-5.1-3.4v-2l2.4-1.1c9.7-4.8 19-10.1 28.4-15.6l9-5.2 3.4-2 3.8-2.1a4513.3 4513.3 0 0 0 48.3-27.7l2-1.1 3.9-2.2c9.2-5.1 18.2-10.4 27.3-15.8l1.8-1L335 65c7-4.2 14-8.2 21-12.1 15.6-8.5 30.8-17.8 46-27Z"/><path fill="#1763CA" d="M301.2 313.7c3.7.4 5.7 1.7 8.8 3.7l4 2.5 2.4 1.5c4.7 2.9 9.6 5.7 14.4 8.5l7.5 4.4a20277.3 20277.3 0 0 0 49.6 29c3.6 2 7.2 4 10.6 6.4 3.2 1.6 4.1 1.3 7.5.3a123.1 123.1 0 0 0 10.8-6.5l2.1-1.3c3.3-2 6.6-3.7 10-5.6 5.5-3 11-6.3 16.5-9.7 8.5-5.3 17.2-10.3 26-15.3 5-3 10.1-5.9 15-9l2.5-1.6 4.5-3c3-2 4.9-3 8.6-3a68.7 68.7 0 0 1 13.3 6.3c5.6 3 11.2 6.2 16.7 9.4l12.3 7c7.8 4.4 15.7 8.8 23.4 13.4A660.7 660.7 0 0 0 596 367l3 1.7 2 1.3v2l-2.9 1.6c-14.4 8-28.5 16.5-42.7 25a2585.2 2585.2 0 0 1-39.6 23.3l-20.3 12a738.5 738.5 0 0 0-26.7 15l-3.4 2a6264.6 6264.6 0 0 0-52 30.4l-1.7 1.1a471 471 0 0 0-4.9 3.2c-3.3 1.7-4.3 1.4-7.8.4-2.4-1.2-2.4-1.2-4.9-2.7l-2.8-1.7-3-1.8a4169 4169 0 0 0-6.5-3.8l-3.4-2c-5.4-3.2-11-6.3-16.5-9.3-7-4-14.1-8-21-12.2-14.4-8.7-29-16.9-43.6-25.1-8.4-4.7-16.6-9.5-24.8-14.4-7-4.2-14.1-8.2-21.2-12.3-10.5-6-20.9-12.1-31.2-18.3-6-3.6-12-7-18.1-10.4v-2l1.5-.8c16.2-8.8 32.1-18 48-27.4a1611.2 1611.2 0 0 1 38.3-22l2.4-1.4 2.3-1.3 2-1.2c3.3-2 3.3-2 4.7-2.2Z"/><path fill="#5293F6" d="m304 200 4 2.1 2.3 1.4 2.6 1.5 2.8 1.6a4508 4508 0 0 1 48.7 28.4 854.3 854.3 0 0 1 33.9 20.5 19 19 0 0 0 6.7 2.5v-2l2.4-1.3 24-14.1a6315.4 6315.4 0 0 0 60.7-36l1.9-1.1c2.6-1.6 2.6-1.6 5-3.5 5.2.4 8.7 1.6 13.1 4.3l3.7 2.2 2 1.2 12 7c8.7 4.9 17.3 9.9 26 15 8.4 4.9 17 9.7 25.6 14.4 14.5 8 14.5 8 19.6 11.9v2l-3.3 1.7a494.5 494.5 0 0 0-31 17.5c-7.4 4.5-15 8.8-22.5 13A809.7 809.7 0 0 0 512 309l-2 1.2c-4.7 2.8-4.7 2.8-8 2.8v2l-1.7.8c-4.8 2.3-9.3 4.8-13.8 7.6-6.5 4-13 7.8-19.7 11.6-10.4 6-20.7 12.2-31 18.5a310 310 0 0 1-17.4 10.2c-4 2.2-7.9 4.6-11.8 7-2.6 1.3-2.6 1.3-4.7 1-6.9-2.8-13-6.6-19.3-10.5-3.7-2.3-7.5-4.4-11.4-6.6a1113 1113 0 0 1-40.6-23.7l-16.5-9.9-2.1-1.3-5.3-3.2a24 24 0 0 0-6.7-2.5l-1-2c-1.7-1-3.5-1.8-5.3-2.7-6.5-3.1-12.6-6.6-18.8-10.3l-3-1.8L258 289c-6.1-3.6-12.4-7-18.6-10.5-7.2-4-14.3-8-21.3-12.2a419 419 0 0 0-9.8-5.7l-2-1-4.4-2.6c2.5-2.9 5.4-4.5 8.7-6.3l3.5-1.9 1.8-1 7.4-4 3.7-2a962.9 962.9 0 0 0 23.7-13.5c9-5.1 17.9-10.2 26.7-15.6l2.5-1.5c3.7-2.2 7.4-4.4 11-6.8l1.8-1.1 4.7-3c3-1.5 3.5-1.3 6.5-.3Z"/><path fill="#282828" d="M1578 141.4h2a403.3 403.3 0 0 1 11.4 0 1088.7 1088.7 0 0 1 22.3.2 2136.8 2136.8 0 0 1 14.2 0c20.4.1 42 4.6 57.1 19.4 15.4 16.8 20 35 19.4 57.3A68 68 0 0 1 1687 260l-1.6 1.9A67.7 67.7 0 0 1 1658 279h-5l1.3 2 5.7 8.7 2 3c7.3 11.2 14.2 22.7 21.2 34.2 6.4 10.6 13 21.2 19.7 31.7 2.9 4.6 3.7 6.9 3.1 12.4-2 3-3.5 4.6-7.1 5.6-3.3.2-5.8.2-8.5-1.7-1.7-1.9-3-3.8-4.4-5.9l-1.8-2.7a472 472 0 0 1-5-8.4l-5.2-8.5-10.2-16.8-15.1-24.5-1.9-3-1.9-2.9a45.2 45.2 0 0 1-3.5-7.2 23.4 23.4 0 0 0-7.4-11c-8-2.6-16.8-1.7-25-1.4h-7c-5.7 0-11.3.2-17 .4v3.3a5908.5 5908.5 0 0 1 .5 67v8l.1 2.4c0 4-.4 6.6-3 9.8-2.6 2.5-2.6 2.5-6.1 3.6-4.3-.1-5.6-1-8.5-4.1-2.7-3.9-2.3-8.3-2.3-12.9v-2.7a1935.5 1935.5 0 0 1 0-33.5 11791 11791 0 0 0-.1-51.8 9536.7 9536.7 0 0 0-.2-83.6 2394 2394 0 0 1 0-35c0-4.4.2-6 3-9.5 3.3-2.6 5.3-2.6 9.5-2.6Z"/><path fill="#2B2B2C" d="M1248 141.7h3.7a4193 4193 0 0 1 36.8 0h6c21 0 40.3 5.5 56.5 19.3a69.7 69.7 0 0 1 19.6 51.9v2.1c-.1 10.7-1 20.2-5.6 30l-1.4 3a73.7 73.7 0 0 1-40.6 35c-13.5 4.4-27.8 3.3-41.9 3.2a6866.2 6866.2 0 0 0-26.1-.2v3.2a5662.1 5662.1 0 0 1 .5 65.5v8l.1 2.3c0 4-.4 5.8-3 9-3.1 2.4-4.6 3-8.5 2.6-4-1-6-4.2-8.1-7.6-.8-3-.8-6-.7-9.2v-11.7a2800.7 2800.7 0 0 0 0-24v-18.5a8332.3 8332.3 0 0 1 .1-66.6 14719.8 14719.8 0 0 1 .2-81v-2.6c0-4.6.4-7.7 3.4-11.4 3.5-2.3 4.9-2.3 9-2.3Z"/><path fill="#292A2A" d="M948 141a44.4 44.4 0 0 1 11 19.2l3 8.3 1.7 4.3c2.5 6.7 5.1 13.3 7.9 19.9l10.9 27.3c3.5 9 7 17.8 10.7 26.7 7.2 17.5 14 35.1 20.8 52.7a26852.7 26852.7 0 0 0 21.4 55l1 2.5.9 2.2c1.6 4.2 2.2 7.4 1.7 11.9-2 3-3.4 4.6-7 5.5-3.7.3-3.7.3-6-.5-3.8-4-6-7.7-8-12.9l-.8-2a871.6 871.6 0 0 1-4.1-10.3L1008 338l-8-20H887l-12 30c-10.5 25-10.5 25-15 28-2.9.4-2.9.4-6 0-2.8-2.4-2.8-2.4-5-5l-1-1c.3-8 2.9-14.5 5.9-21.8a9943 9943 0 0 0 4.6-11.4l5.6-14.4C871 305.2 877.8 288 885 271c5.2-12.2 10.2-24.5 15-37a1294.8 1294.8 0 0 1 17.5-43.2l1-2.2 5.8-14.4 1.5-3.6 2.6-6.7c9.8-24.3 9.8-24.3 19.7-22.8Z"/><path fill="#2C2D2E" d="M1412.6 141.8H1437.2a8570.2 8570.2 0 0 1 64.7-.4h14c8 0 8 0 11.7 3 2.6 2.8 3.3 3.7 3.7 7.4-.4 4-1.6 5.4-4.3 8.2-2.3 1.2-3.6 1.1-6.2 1.1h-8.6a4769.7 4769.7 0 0 1-35.5 0h-22.1l-33.6-.1v87l19.5-.2a7310.5 7310.5 0 0 1 53.2-.3 602.4 602.4 0 0 1 10.8-.1c4.2 0 6.7.4 10 3 2.5 2.6 2.5 2.6 3.3 4.7l-.1 1.9v2c-1.1 3.3-3 4.8-5.7 7-3 .7-5.9.6-9 .6h-2.6a719.1 719.1 0 0 1-14.9-.1l-16-.2h-19.3l-29.2-.3 1 90h22.8a10102.9 10102.9 0 0 1 62.2.3h12.8c4.5 0 6.5.2 10.3 3.1 1.8 2.5 2.6 3.6 2.5 6.6v2c-1 3.4-2.7 4.8-5.6 7-3.8.8-7.5.7-11.3.6a1350758881.4 1350758881.4 0 0 1-22.7 0 2756.8 2756.8 0 0 1-35.5 0 2801.2 2801.2 0 0 1-37 0h-3.3c-8.2 0-8.2 0-11.9-3-3.8-4.3-3.4-7.6-3.4-13.2a513369065 513369065 0 0 1-.2-81.3 17242.8 17242.8 0 0 0-.2-106.2 946.6 946.6 0 0 0 0-15v-2.5c0-4 .2-6 2.4-9.4 3-2.9 4.6-3.1 8.7-3.2Z"/><path fill="#2A2A2A" d="M1128.3 138.6h3.3c23.2.5 42.2 11.3 58.4 27.4 2.6 2.9 3.9 5.2 4.6 9-.8 4-2.6 5.4-5.6 8l-1 1c-3.6.6-6 .7-9.1-1.4l-5.9-5.6-2.5-2.3c-1.5-1.7-1.5-1.7-1.5-3.7l-1.7-.8a97.3 97.3 0 0 1-7-4.1 64 64 0 0 0-45.3-6.4 44.8 44.8 0 0 0-26 17.3c-3 5.4-5.6 10.8-6 17l-.3 3.6A38.2 38.2 0 0 0 1094 224c12.6 11.6 28.5 15.3 44.8 19 16.2 3.8 31.6 8.7 44.2 20l2.3 2a56.7 56.7 0 0 1 17.8 41.8A71.9 71.9 0 0 1 1186 357a77 77 0 0 1-53.7 22.4A83.4 83.4 0 0 1 1072 356c-14.3-14.8-14.3-14.8-14.6-23.6.2-3.8.6-4.3 3.2-7.5 4-2.2 5.8-2.9 10.4-1.9 3.3 2.6 5.5 6.2 7.8 9.6A57.9 57.9 0 0 0 1117 358c4.2.4 8.4.5 12.7.5h3.4c14.8-.3 27.6-4 38.1-14.8 8.5-9.9 11-19.8 11-32.5v-2.6a43 43 0 0 0-11-30.2c-10.2-9.6-23.5-13.5-36.8-16.8A140.7 140.7 0 0 1 1086 242l-3.1-2.2a59.3 59.3 0 0 1-19.1-36.8 60 60 0 0 1 15-44.8 66.3 66.3 0 0 1 49.5-19.6Z"/><path fill="#FCFCFC" d="M1585 161h2a317122.5 317122.5 0 0 0 13.2 0l14.4-.2H1627.7c17 0 31.3 4 44 15.7l2.3 2.5 2.6 2.7c6.6 8 8.8 19.5 8.7 29.7v2.2c-.3 13-3.8 24-13 33.7-13.9 13-28.6 16.9-47.1 16.8h-3.4a3417.5 3417.5 0 0 1-28 0H1588c-2-.1-2-.1-3-1.1a279 279 0 0 1-.1-9.5v-3a4606.7 4606.7 0 0 1 0-34.9v-18.4l.1-36.2Z"/><path fill="#FDFDFD" d="M1255 161c67.4 0 67.4 0 83.9 15.8A40 40 0 0 1 1349 194l1 3.5a65.7 65.7 0 0 1-4 43.5c-2 3.3-4.3 6.2-7 9l-2.4 2.7c-23 20.7-51 15.3-81.6 15.3V161Z"/><path fill="#FCFCFC" d="M943 175h2l1.3 3.3 6 15.3 1 2.8L969 236l6.9 17.7a650.8 650.8 0 0 0 11.4 29c1 2.3 2 4.6 2.8 7l1 2c1 3 1.9 5.1 1.9 8.3h-99c.9-4.4 2.1-8.2 3.8-12.3l.8-2.1a1765.3 1765.3 0 0 1 11.9-29c3.1-6.8 5.7-13.7 8.4-20.7l4.7-12 .9-2.4 9.6-24.2 5.4-13.6 2-5 1.5-3.7Z"/><path fill="#2A2A2A" d="M812.3 140.6c3.7.4 3.7.4 6.6 2.8 3.3 4 3.2 6.2 3.2 11.5v9.3a11557.7 11557.7 0 0 0 .1 55.5 13620 13620 0 0 0 .2 89.7c0 20-2.5 38.4-17 53.4a58.5 58.5 0 0 1-43.8 16.6 63.7 63.7 0 0 1-41.7-23c-7-9.7-7-9.7-6.8-16 1-3.8 1.5-5.3 4.9-7.4 4.8-1 4.8-1 8 0 3.1 2.6 5.5 5.8 8 9 6.3 8 14.5 15.4 25 17a40.2 40.2 0 0 0 31-8.7 45.2 45.2 0 0 0 12.1-32v-13.2a9138.1 9138.1 0 0 1 0-33.7v-3a312985.6 312985.6 0 0 1 .3-114.2v-3.9c.8-4.2 2.4-5.6 5.6-8.3 1-1 1-1 4.3-1.4Z"/><path fill="#2F609B" d="M293 318v3h-2v2l-4.4 2-2.4 1.1c-2.2.9-2.2.9-4.2.9l-1 3h-4v2l-7.8 4-2.2 1-2.2 1.2-2 1c-1.8.8-1.8.8-4.8 1.8v2l-6 1-.1 1.9-.9 2.1-6 2c-1.2 2-1.2 2-2 4l-3 1 1 3c-2 1-2 1-5.5.4l-3.5-.4-2 2h-5l-.8 2c-1.2 2-1.2 2-4.2 3l1.3 5.8.7 3.2c1.1 3.3 2.4 4.7 5 7l1 2 7 2v3l7 1c0 1 0 1 .2 1.9.6 2.3.6 2.3 3 3.2l2.8.9 6 3v2a80 80 0 0 1-12-5.8l-2-1.2-24-14-12-7v-2l1.5-.8c16.2-8.8 32.1-18 48-27.4 8.3-4.9 16.7-9.6 25-14.4l10.8-6.1 5.7-3.3Z"/><path fill="#5789C2" d="M506 201c3 1.4 3 1.4 6.1 3.3l3.7 2.2 2 1.2 12 7c8.7 4.9 17.3 9.9 26 15 8.4 4.9 17 9.7 25.6 14.4 14.5 8 14.5 8 19.6 11.9v2l-5.4 3-3 1.7C590 264 590 264 588 264c1.5-5.7 1.5-5.7 4.1-7.4l1.9-.6c-3.7-2.5-3.7-2.5-8-3-2.7-2.4-2.7-2.4-5-5v-2h-7v-2h-3v-2l-2.4-.8-2.6-1.2-1-3-4.9-1.2a24 24 0 0 1-6.4-3.8 138 138 0 0 0-17.4-10.6c-3.7-2-7.3-4-11.3-5.4v-2l-2-.8-3-1.2-2.2-.9c-6.4-2.7-6.4-2.7-8.9-5.3a11.3 11.3 0 0 0-7.5-3.2c-4.3.7-7.6 3.3-11 5.8-2.4 1.6-2.4 1.6-4.4 1.6v2l-4.9 2.5-2.7 1.4C476 217 476 217 474 217v2l-4.9 2.5-2.7 1.4C464 224 464 224 462 224v2a652 652 0 0 1-3.9 2l-2.2 1.1c-1.9.9-1.9.9-3.9.9v2c-4.6 4.4-9 6.4-15 8l-3.6 2.6c-3 2.3-5.5 3.1-9.4 3.4a27 27 0 0 1 7-5.4l2.3-1.3 2.4-1.4 5.3-3 2.6-1.5 9.6-5.7 13.6-8 3-1.9 6.4-3.6c4.5-2.6 9-5.2 13.2-8.1l2-1.3 4.7-3.4c3.8-1.8 5.8-1.5 9.9-.4Z"/><path fill="#9FBADE" d="M402 26c9.6 5.3 18.8 11 28 17l-2 1c-1.8-.7-1.8-.7-3.8-1.8a64 64 0 0 0-7-3.3c-2.4-1-4-2.3-6.2-3.9-5-3.8-5-3.8-10.8-5-2.4 1-4.1 2.3-6.2 4-3.2 2-6.4 3.8-10 5l-.3 2-.7 2-6 2c-6 3.4-6 3.4-10.6 8.2L365 55h-2v-2l-4.8 1.8-2.7 1c-2.5 1-2.5 1-4 2.8C350 60 350 60 346 60l-1 3c-1.7 1.1-1.7 1.1-3.8 2.1l-2 1c-2.2.9-2.2.9-4.4 1.3l-1.8.6-1 3-4 2-1 2-4-1v2l-2.8 1.4c-8 3.7-8 3.7-15.3 8.5C302 88 302 88 298 88l-.7 2-1.3 2-2.2.4c-3.4.7-5.5 2.2-8.3 4.1A22 22 0 0 1 275 101c2.1-2.3 4.2-3.8 6.8-5.3l2.3-1.4 2.5-1.4 2.5-1.4a1472 1472 0 0 1 19.3-10.8c7.1-4 14.2-8.1 21.2-12.3l13.7-8 3-1.8a1848 1848 0 0 1 16.8-9.7l1.8-1 3.7-2 1.8-1 1.8-1.1c10-5.7 20-11.7 29.8-17.8Z"/><path fill="#2E62A3" d="M252 400c6.3.3 10.8 3.7 16 7 3.3 2 6.4 3.7 10 5v2l2.2.8c2.7 1.2 5.1 2.5 7.6 4 3 1.9 5.8 3.6 9 5 4 2 7.5 4.3 11.1 6.8 4.6 3 8.9 5.4 14.2 6.8 2.8.9 5.3 2.2 7.9 3.6v2l3.2.8c3.6 1 6 2.5 8.8 5.2v2l6 2v2l9 1 1 5 2.1.3c3.4.8 5.7 2.2 8.6 4A88.6 88.6 0 0 0 385 473v3l2.2.8c3.8 1.6 7.4 3.8 11 6 3.1 1.4 5.4 1.4 8.8 1.2-1.2 1.6-1.2 1.6-3 3-3.8-.4-6.6-1.7-9.9-3.7l-2.8-1.7-3-1.8a4169 4169 0 0 0-6.5-3.8l-3.4-2c-5.4-3.2-11-6.3-16.5-9.3-7-4-14.1-8-21-12.2-14.4-8.7-29-16.9-43.6-25.1-9.6-5.4-19-11-28.4-16.5l-15-8.7-1.9-1.2v-1Z"/><path fill="#5B8CCA" d="m287 207 2 1-2.8 1.8c-3 2-3 2-4.6 3.8-3.2 2.9-7.6 4-11.6 5.4l-1 3c-2.1 1-2.1 1-4.8 2-6.3 2.3-6.3 2.3-11.6 6.5-2.5 2.3-5.5 3.2-8.6 4.5l-3.3 1.7C238 238 238 238 236 238l-1 3-5.2 2.2c-2 .8-2 .8-4.1 2.8-3.9 2.9-8 3.8-12.7 5v2l-5 2v3l2.1 1c5.1 2.3 10.2 4.6 15.2 7.2 1.9 1 1.9 1 4.6 1.8 2.1 1 2.1 1 3 3 1.9 3.3 5.5 3.9 9.1 5v2l2.4-.1c2.6.1 2.6.1 4.6 2.1h2v3a87638965133920.3 87638965133920.3 0 0 1 7.8 3c2.2 1 2.2 1 3.2 3l5 3-2 1a536.1 536.1 0 0 0-31.2-17.7 353 353 0 0 1-15.5-8.9l-10-5.8-1.8-1-4.5-2.6c2.5-2.9 5.4-4.5 8.7-6.3l3.5-1.9 1.8-1 7.4-4 3.7-2a962.9 962.9 0 0 0 29-16.6l2.7-1.5c4.7-2.6 9.3-5.4 14-8.2.8-.5 1.8-1 2.7-1.7l5.3-3.2 2.4-1.5 2-1.3 1.8-.8Z"/><path fill="#2867AD" d="M500 427h5a30.7 30.7 0 0 1-7.5 5.8l-2.3 1.4-8.3 4.6-18 10.2-3.5 2a6316.2 6316.2 0 0 0-53.1 31c-3.3 2-3.3 2-5.3 2 .3-2.5.8-3.8 2.6-5.6A26 26 0 0 1 422 474v-2l2.2-.8c2.8-1.2 5.2-2.6 7.8-4.2 3.2-1.8 6.5-2.9 10-4v-2l4.4-2 2.4-1.1c2.2-.9 2.2-.9 4.2-.9v-2l2-1a90.5 90.5 0 0 0 15-9c4.7-3 4.7-3 7-3v-2c5-2.9 9.6-5.2 15-7l1.6-1.6c2-2 3.7-2 6.4-2.4v-2Z"/><path fill="#2B63A7" d="m219 361 2 1-2 1.1c-2.3 1.8-2.3 1.8-2.5 4.9.2 6.4.2 6.4 3.1 11.9A41 41 0 0 0 233 385v3l7 1 .2 1.9c.6 2.3.6 2.3 3 3.2l2.8.9 6 3v2a80 80 0 0 1-12-5.8l-2-1.2-24-14-12-7v-2l8.4-4.6 2.4-1.3 2.3-1.2 2.1-1.2 1.8-.7Z"/><path fill="#9DB8DB" d="M431 44a519.6 519.6 0 0 1 41.2 22.7 1159 1159 0 0 0 38 21.8A414.6 414.6 0 0 1 543 108l-2 1-5-2v-2l-1.8-.4c-2.2-.6-3.9-1.5-6-2.7l-2-1.2-2.3-1.4-4.6-2.7-2.2-1.4c-5.2-3-10.5-5.8-15.8-8.6-5.8-3.1-11.3-6.5-16.8-10-2.4-1.7-2.4-1.7-5-2.6-3.5-1.4-6.3-3.5-9.3-5.7A16.3 16.3 0 0 0 464 66v-2l-6-2v-2l-5-1v-2l-3-.7c-4-1.2-7.3-3.1-10.8-5.4l-3.4-2.1L433 47l-2-1v-2Z"/><path fill="#4E8FE3" d="M302 199.3c2.1.7 4 1.7 6 2.8l2.3 1.4 2.6 1.5 2.8 1.6a3078.8 3078.8 0 0 1 24.3 14.2l1.8 1c8.5 5 16.9 10 25.2 15.2l-3 1a81 81 0 0 1-10.7-6.4l-2.2-1.3-10.4-6a268 268 0 0 1-16.4-9.9c-3-1.8-6-3-9.3-4.4l-2-2c-2.3-.4-2.3-.4-5-.5-3.6-.2-4.8-.4-8-2.5-3.3.3-3.3.3-6 2h-5c3-3.5 8-8.4 13-7.7Z"/><path fill="#5891E0" d="m501.4 200.8 1.6 1.2-3 1.2c-3.7 1.6-7 3.6-10.3 5.8-1.7 1-1.7 1-3.7 1v2l-4.9 2.5-2.7 1.4C476 217 476 217 474 217v2l-4.9 2.5-2.7 1.4C464 224 464 224 462 224v2a652 652 0 0 1-3.9 2l-2.2 1.1c-1.9.9-1.9.9-3.9.9v2c-4.6 4.4-9 6.4-15 8l-3.6 2.6c-3 2.3-5.5 3.1-9.4 3.4a27 27 0 0 1 7-5.4l2.3-1.3 2.4-1.4 5.3-3 2.6-1.5 9.6-5.7 13.6-8 3-1.9 6.4-3.6c7-4 13.6-8.3 20.2-13 2.6-1.2 2.6-1.2 5-.4Z"/><path fill="#9AB7DD" d="M543 109a61.4 61.4 0 0 1 15.2 7.3l5.1 3 2.5 1.4c3.4 2 7 4 10.5 5.8l9.9 5.6c4.8 2.8 9.7 5.5 14.8 7.9v3l-8 4c-1-4-1-4-1-8l-3-1v-2h-3v-2l-4-1v-2l-10-3v-2l-1.7-.3c-3.5-1-6-3.2-9-5.3a19.6 19.6 0 0 0-7.3-2.4 210 210 0 0 1-5-4l-2.8-1-2.2-1-1-3Z"/><path fill="#185DB8" d="m304 314 2 3c-2.9.8-4.9 1-8 1l-.8 1.8c-2.7 4.9-7 6-12 7.4-2.2.7-2.2.7-3.6 2.2-2.2 2.2-4.7 3.1-7.5 4.4A26.1 26.1 0 0 0 263 343c-2.2.9-3.6 1-6 1a72 72 0 0 0-7 3v-3l6-1v-2c5.8-4.3 12-7.1 19-9v-2l1.8-.3c2.4-.6 2.4-.6 4.1-2.6 2.3-2.3 4-3.2 7.1-4.1h3v-2c1.6-1.7 1.6-1.7 3.7-3.6l2-2c2.7-1.7 4.2-2 7.3-1.4Zm-58 34 3 1h-2l-1 2v-3Z"/><path fill="#295991" d="M557 346c4 1.5 7.4 3.3 11 5.4a937.5 937.5 0 0 0 28 15.6l3 1.7 2 1.3v2l-7.8 4.4-2.2 1.2-2.1 1.2-2 1.1-5.9 3.1-1-2 1.6-.7c4.2-2 7.3-3.8 10.4-7.3l3-2h-3v-3l-2.4-.8-2.6-1.2-1-3c-1.8-.6-1.8-.6-4-1l-6.1-3-3.2-1.5C570 356 570 356 568 354l-3.3-.9c-4-1.2-6.3-2.6-9.7-5.1l2-2Z"/><path fill="#4E8EE4" d="m555 284-1.6.9A2010.8 2010.8 0 0 0 505 313l-2-1 2-3h4v-2l3.4-1.3 3.6-1.7 1-3c5-4.8 5-4.8 8.4-5.5 3-.6 4.5-1.6 6.9-3.4 3.7-2.6 7.2-4.2 11.6-5.4 2.4-.7 2.4-.7 5.5-2.4 2.6-1.3 2.6-1.3 5.6-.3Z"/><path fill="#A2BFE5" d="m588 147 4 1-3.4 2c-9.6 5.2-19.1 10.6-28.6 16l-1.8 1a117 117 0 0 0-9.5 5.9c-8.7 5.9-18.2 10.4-27.7 15.1v-2c4.2-4 7.3-5.5 13-7l1.4-1.4c2-2 4-3 6.6-4.2 3.4-1.6 6.5-3.3 9.6-5.6 3-2.2 5.8-4 9.2-5.5 3.2-1 3.2-1 5.2-3.3l2-.5 2-.5 1-2 5-2 1-2 5-2c3.3-1.1 3.3-1.1 6-3Z"/><path fill="#568FD5" d="M565 238c8.8 1.8 16 5.4 23.6 10l3.3 2c8 4.6 8 4.6 9.1 8l-5.4 3-3 1.7C590 264 590 264 588 264c1.5-5.7 1.5-5.7 4.1-7.4l1.9-.6c-3.7-2.5-3.7-2.5-8-3-2.7-2.4-2.7-2.4-5-5v-2h-7v-2h-3v-2l-2.4-.9C566 240 566 240 565 238Z"/><path fill="#1261BB" d="m544 403 2 1a2386 2386 0 0 1-30.6 18.3l-2.5 1.4-2.3 1.3-2 1.2c-1.6.8-1.6.8-3.6.8v-3h4v-2l3.4-1.3 3.6-1.7 1-3a34.1 34.1 0 0 1 18.5-9.4 20 20 0 0 0 8.5-3.6Z"/><path fill="#1E5EB5" d="m241 351 2 1-3 3h-2l1 3c-2 1-2 1-5.5.4l-3.5-.4-2 2h-5l-.8 2c-1.2 2-1.2 2-4.2 3l1.3 5.8.7 3.2a14 14 0 0 0 5 7l-2 1c-2.8-1.2-4.1-1.7-6-4a34.6 34.6 0 0 1-1-13c1.9-2.3 1.9-2.3 4-4l2.4-2c5.2-4 9.2-5.5 15.5-6.6 2-.2 2-.2 3.1-1.4Z"/><path fill="#1A60BC" d="M515 322c10.7 5.2 21 10.8 31.2 17l10.8 6c-3.2 1-4.3 1-7.5.2l-2.3-.5c-2.2-.7-2.2-.7-5.2-2.7v-2l-5 1-1-6-2.2-.3c-3.4-.9-5.1-2.5-7.8-4.7l-6-3c-2.9-1.6-2.9-1.6-5-3v-2Z"/><path fill="#5591E0" d="M367 238c4.8 1.4 8.8 3.5 13 6.1l2 1.2 9.7 6 1.8 1.1 4.8 3a19 19 0 0 0 6.7 2.6v-2c6.8-4 6.8-4 9-4v3l-2.8 1.4c-3.2 1.5-3.2 1.5-6.2 3.6-3.8-.4-7-1.7-10.6-3.3l-2.8-1.3a25.4 25.4 0 0 1-6.6-5.4c-3-2-5.5-3.3-9-4v-2l-2.3-.8c-2.9-1.3-4.5-2.8-6.7-5.2Z"/><path fill="#9FBADE" d="M220 151c5.3 1.4 9.7 4 14.4 6.7 2.3 1.1 4.1 1.8 6.6 2.3 2.8 1.4 2.8 1.4 5 3v2l1.8.4c5 1.3 5 1.3 6.5 3 2.3 2.2 4.9 3.3 7.7 4.6v2c-4-1.5-7.8-3.4-11.6-5.5l-1.8-1a2086 2086 0 0 1-9.8-5.5c-12.9-7-12.9-7-18.8-11v-1Z"/><path fill="#97BAE4" d="m215 134 2 1-3 1c-1.2 2-1.2 2-2 4l-1 2 2 .8c2 1.2 2 1.2 2.8 3.3 0 1 0 1 .2 1.9l4 1v2a74 74 0 0 1-14.6-7.3L203 142v-2a762.8 762.8 0 0 1 9.2-4.8l2.8-1.2Z"/><path fill="#5F8CCA" d="M267 293c4.4.8 8.7 1.9 13 3v4l2-.4c3.9.5 5.3 2.2 8 4.7 3.3 2.8 7.2 4.7 11 6.7l-2 1c-8-3-15.4-8-22.8-12.3l-2.7-1.6a669834813.5 669834813.5 0 0 1-4.9-3L267 294v-1Z"/><path fill="#9EBCE4" d="m243 118 2 1-3 1-.8 2.4c-1.8 3.8-4.3 4.2-8.2 5.6l-5 3c-3.5 2.1-7 2.5-11 3 2-2.2 4-3.7 6.5-5.1l2.1-1.2 2.2-1.1 4.1-2.3 2-1.2 4.1-2.3c1.6-1 3.3-2 5-2.8Z"/><path fill="#39588B" d="m219 361 2 1c-3.6 3-3.6 3-7 3l.6 1.9c.4 2.1.4 2.1-.6 4.1h-3l-1 4c-3-.6-5.4-1.6-8-3v-2l8.4-4.6 2.4-1.3 2.3-1.2 2.1-1.2 1.8-.7Z"/><path fill="#538EE0" d="m222 249-2.4 2.2c-3.4 3.7-3.6 6-3.6 10.8-3.4-1-6-2-9-4l1-4 5-1v-2c5.6-3.1 5.6-3.1 9-2Z"/><path fill="#E9F7FD" d="m351 57-1.8 1a14034.3 14034.3 0 0 0-10.9 6.2c-5.5 3.2-11 6.4-16.3 9.7-2 1.1-2 1.1-4 1.1 1.1-3.4 1.8-3.8 4.8-5.7l2-1.3c2.2-1 2.2-1 6.2-1l1-3h4v-2l5.3-3 2.9-1.8c3-1.3 3.8-1.2 6.8-.2Z"/><path fill="#E3F4FB" d="M268 329c2.6-.2 2.6-.2 5 0-2.6 3-5.5 4.6-9 6.5a173505903.9 173505903.9 0 0 1-10.7 6.2L242 348c1.1-3.3 2-4 5.1-5.8l2.9-1.2v-4c3-1 3-1 5-.4l2 .4 3-3 3-1c3.3-.8 3.3-.8 5-4Z"/><path fill="#5F92CD" d="M539 293a33977.3 33977.3 0 0 1-20.4 12.1l-3.3 2-3.3 1.9-1.9 1.2-5.1 2.8-2-1 2-3h4v-2l3-1.1c4-1.7 7.3-4 10.8-6.6 2.4-1.4 4.4-1.9 7.2-2.3v-2c5.6-3.1 5.6-3.1 9-2Z"/><path fill="#2D5B9C" d="M214 365h2a4953 4953 0 0 1 2.5 12c.4 2.2.4 2.2 2.5 4-4.8-.6-8-2.6-12-5 1.2-3.5 2.4-5.4 5-8v-3Z"/><path fill="#598FCF" d="m585 264 3 1c-1 .5-2 1-3 1.7a6877.6 6877.6 0 0 0-17.3 10l-2 1.2a85.8 85.8 0 0 1-8.6 5.1l-2.1-1 2.4-1.4c2.7-1.3 2.7-1.3 3.6-3.6h3v-2l5-3 1.9-1.6c2.8-1.9 5.8-2.5 9.1-3.4l2.8-1.7 2.2-1.3Z"/><path fill="#2F3032" d="M1010 334c2.5 2.5 3 4.7 4 8l2 2c1.7 5.1 1.7 5.1 2 8-1.5 1.7-1.5 1.7-3 3l-3.6-8.3-1-2.3-1-2.3-1-2c-.5-2.7.2-3.9 1.6-6.1Z"/><path fill="#A0BBDC" d="m262 175 6 1v2l2.4.6c4.9 1.9 9.1 4.6 13.6 7.4 3.4 2.2 3.4 2.2 7.2 3.4 1.8.6 1.8.6 3 2.7l.8 1.9a56.8 56.8 0 0 1-16.5-8.1 1649 1649 0 0 1-9.8-5.9l-2.8-1.6-2.3-1.3-1.6-1.1v-1Z"/><path fill="#3064A3" d="M515 322a350 350 0 0 1 28 15c-3 1-3.8 1.1-6.9-.2-2.5-1.4-4.8-3-7.2-4.6-3.7-2.4-7.6-4.5-11.5-6.6L515 324v-2Z"/><path fill="#98BAEB" d="M381 40h2v3l-2.4.6A31.4 31.4 0 0 0 365 55h-2v-2l-2-1 1.9-1.2 2.4-1.6 2.4-1.6c2.3-1.5 2.3-1.5 3.9-3.2 2.3-2.3 5.3-2.6 8.4-3.4l1-1Z"/><path fill="#2C66A5" d="m544 403 2 1-20 12-2.7 1.7C521 419 521 419 519 419c0-2 0-2 1.2-3.5 3.6-3 8.4-4 12.8-5.5v-2l1.9-.8 2.5-1.1 2.4-1.1 4.2-2Z"/><path fill="#2160AA" d="M588 366c4 .6 6.8 1.6 10 4v4c-11.5 6.3-11.5 6.3-17 9l-1-2 1.6-.7c4.2-2 7.3-3.8 10.4-7.3l3-2h-3v-3l-4-2Z"/><path fill="#9DB6DB" d="M276 102c-2.2 2.2-4.3 3-7.2 4.2-2 .8-2 .8-4.6 2.7-10.7 7.1-10.7 7.1-15.2 7.1l-1 3-3-2 2.6-1.5 1.8-1a2211.3 2211.3 0 0 1 13-7.6l3.2-1.9 2.8-1.8c2.8-1.3 4.5-1.5 7.6-1.2Z"/><path fill="#2462B1" d="M320 437a36 36 0 0 1 10 4v2l3.2.7c4 1 6.1 3.2 8.8 6.3-6.8-1.5-11.4-2.5-16-8-2.2-1.3-2.2-1.3-4-2v-2l-2-1Z"/><path fill="#CAE6F7" d="M528 415v2h-3v2l-3.5 1.6c-4 2-7.2 4.4-10.5 7.2-2.5 1.5-4.2 1.4-7 1.2 2.2-2.4 4.5-4 7.4-5.7l2.5-1.5 2.7-1.5 2.6-1.5c6.5-3.8 6.5-3.8 8.8-3.8Z"/><path fill="#2A65AA" d="m568 391-9.9 6-2.8 1.8a2262019609 2262019609 0 0 1-5.2 3.2l-2.1 1-2-1 1-3c1.8-.8 1.8-.8 4-1.5 3.4-1 3.8-1.3 6-4.5 2.6-.2 2.6-.2 5 0v-2c2.5-1.2 3.4-.8 6 0Z"/><path fill="#30629A" d="M380 474c4 .6 6.6 1.8 10 3.9l2.6 1.6 2.4 1.5a18 18 0 0 0 12 3c-1.2 1.6-1.2 1.6-3 3a23 23 0 0 1-9.6-3.5l-2.6-1.4-2.6-1.6-2.7-1.6c-4.8-2.7-4.8-2.7-6.5-3.9v-1Z"/><path fill="#E4F4FB" d="M585 380c2 1 2 1 3 3l-2.9 1.9c-3 2-3 2-5.1 4.1-3.6-.4-3.6-.4-7-1 2.6-2 5.3-4 8.1-5.8l2.1-1.3 1.8-.9Z"/><path fill="#4C8DEE" d="m263 282-2 5c-4-.6-6.8-1.7-10-4v-2c4.5-1.5 7.5-.3 12 1Z"/><path fill="#E0F4FD" d="m281 208 2 2-20 12v-3c6.8-4 6.8-4 9-4l.7-2c1.3-2 1.3-2 3.8-2.6l2.5-.4 2-2Z"/><path fill="#D2EAF9" d="M459 455v2h-3l-1 6h-2.3c-2.8-.1-2.8-.1-5.7 1-2.2-.4-2.2-.4-4-1l6.9-4 2-1.2c4.9-2.8 4.9-2.8 7.1-2.8Z"/><path fill="#6491C8" d="m251 228 1 2c-1.4 2.8-3.3 3-6 4.2-1.9.7-3.6 1.6-5.3 2.5-2.7 1.3-2.7 1.3-4.7 1.3l-1 3-7 1a60 60 0 0 1 11.5-7.6c3.9-2 7.7-4 11.5-6.4Z"/><path fill="#185FBD" d="M301 425c4 1.2 7.5 2.6 11 5v2l6 1-1 3c-4-1.4-7.3-3.3-10.8-5.5l-3-1.8-2.2-1.7v-2Z"/><path fill="#D8F0FB" d="m419 477 1 2-3 2-1 3c-2.3 1.2-2.3 1.2-5 2.2l-2.8 1-2.2.8-2-2c4.9-3.3 9.6-6.5 15-9Z"/><path fill="#0D57BD" d="M319 324c3.7 1.4 7 3 10.3 5l2.7 1.6 2 1.4v2c-4.5-.5-7.4-2.3-11-5v-2l-5-1 1-2Z"/><path fill="#343434" d="M987 236h2a2111.8 2111.8 0 0 1 4.5 10.7l1 2.3.9 2.1c.6 1.9.6 1.9.6 4.9l-3-1a90.3 90.3 0 0 1-3.2-7.9l-.8-2.2c-1.1-3-2-5.6-2-8.9Z"/><path fill="#D2EDFA" d="m435 468 1 3a37 37 0 0 1-12 6l-2-2 13-7Z"/><path fill="#E7F4FC" d="M497 81c6.6 1 12 3.6 17 8l-1 2-16-9v-1Z"/><path fill="#9AB5D7" d="m431 44 7.6 3.8 2.2 1c4.3 2.1 8.3 4.4 12.2 7.2l-2 1c-2.8-1.2-5.4-2.5-8-4l-3.2-1.8c-6.4-3.6-6.4-3.6-8.8-5.2v-2Z"/><path fill="#9FBEE6" d="m519.2 188.4 1.8.6-7.8 4.6-2.2 1.3-2.2 1.2-2 1.2c-1.8.7-1.8.7-4.8-.3l3-1v-2l1.9-.8 2.4-1 2.4-1.1c6.2-3 6.2-3 7.5-2.7Z"/><path fill="#E7F6FC" d="m224 130-8.9 5-2.5 1.5-2.5 1.4-2.2 1.3-1.9.8-2-1 1-3c2.5-1 2.5-1 5.6-1.7l3-.7 2.4-.6v-2c3.1-2 4.5-2 8-1Z"/><path fill="#D1EAF9" d="m566 391 2 1c-3.3 5.4-8 7.4-14 9l-2-1 6.9-4.6 2-1.3 5.1-3.1Z"/><path fill="#1B5DBA" d="m241 351 2 1-3 3h-2l1 3c-3.2 1.6-5.7 0-9-1l1-3c2-.7 2-.7 4.5-1.1 3-.4 3-.4 5.5-1.9Z"/><path fill="#0D58BD" d="M339 336c4.4 1.6 8.3 3.8 12.3 6.1l2 1.2 4.7 2.7v2l-1.6-.9c-2.5-1.2-2.5-1.2-5.6-2.1-2.8-1-2.8-1-3.8-3l-4-2.1-2.3-1.1-1.7-.8v-2Z"/><path fill="#D1EBFA" d="M504 429c-1 3-1.6 4-4 6h-3l-2 2-7 1c1.5-3 3.6-3.6 6.4-5l3-1.7c4.5-2.3 4.5-2.3 6.6-2.3Z"/><path fill="#1F59A1" d="m304 314 2 3c-2.9.8-4.9 1-8 1v2h-4c2.1-4.8 4.6-6.7 10-6Z"/><path fill="#488CE5" d="M586 259h2v5l-4.8 2.6-2.6 1.4c-2.8 1-3.9 1-6.6 0l1-2c2.6-.8 5.1-1.4 7.8-2l2.2-1c.9-2 .9-2 1-4Z"/><path fill="#568BC9" d="M303 199c0 2 0 2-1.2 3.5a21.2 21.2 0 0 1-6.8 3.5l-1 1h-5c3.7-4.1 8.3-8 14-8Z"/><path fill="#383939" d="M1191 172h3v6l-4 1v-2h-2l-1-4c1-1 1-1 4-1Z"/><path fill="#E5F3FD" d="M223 154c4.5 1.7 8.6 3.8 12.8 6.1l2.1 1.2 5.1 2.7c-4 1.3-5 .3-8.7-1.4l-3-1.5-2.3-1.1v-2l-1.9-.3c-2.1-.7-2.1-.7-4.1-3.7Z"/><path fill="#DBF0FD" d="M246 282a41.6 41.6 0 0 1 17 10c-5.1-.8-8.9-2.8-13.3-5.5l-2-1.3-1.7-1.2v-2Z"/><path fill="#98BAE8" d="M592 140h6l1 4-7 3v-7Z"/><path fill="#2D63A9" d="M557 346c3 1.2 6 2.5 9 4v3c-4.5-.5-7.3-2.4-11-5l2-2Z"/><path fill="#E1F2FC" d="M282 303c3.8 1.4 7.4 3.2 11 5l-1 2c-4.5 1.3-4.5 1.3-7 0l-1-4-2-1v-2Z"/><path fill="#3F6299" d="m213 369 3 1v5l-5 2-2-2c1.2-2.5 2-4 4-6Z"/><path fill="#2D63AA" d="M249 348a32.6 32.6 0 0 1-17 6c4.8-4.3 10.5-8.1 17-6Z"/><path fill="#DEF0FB" d="m204 252 3 1-4 3 8 5-2 2c-3-1.4-5.6-2.8-8-5v-4l3-2Z"/><path fill="#1262BF" d="m406 481 1 3c-2.8.6-2.8.6-6 1l-3-2v-2c2.9-1.4 5-.6 8 0Z"/><path fill="#D9F0FC" d="M540 408c0 2 0 2-1.7 4a16 16 0 0 1-7.3 4l-3-2 4.9-3 2.7-1.7c2.4-1.3 2.4-1.3 4.4-1.3Z"/><path fill="#DDF1FC" d="m593 248 1 3h4c2.3 1.7 2.3 1.7 4 4-.1 2.7-.1 2.7-1 5l-2 1-2-2 4-1a36.7 36.7 0 0 0-11-8l3-2Z"/><path fill="#DAEFFC" d="m246 228 3 2-14 8v-3l2.3-.8c2.7-1 2.7-1 4.3-2.8l1.4-1.4h3v-2Z"/><path fill="#5492E6" d="m264 225-4 6-5-2v2l-4-1 4.8-3 2.7-1.8c2.5-1.2 2.5-1.2 5.5-.2Z"/><path fill="#353537" d="m947 180 4 1 2 9-3 1-3-11Z"/><path fill="#DCF0FC" d="M389 480a925.3 925.3 0 0 1 7.4 3.6 43 43 0 0 1 6.6 4.4c-4.8-.5-8-1.3-12-4l-2-1v-3Z"/><path fill="#343434" d="m1578 370 4 2c-.6 2-.6 2-2 4-3.6.8-3.6.8-7 1l-1-3 6 1-.6-2-.4-2 1-1Z"/><path fill="#5E90CD" d="m555 284-14 8-1-2h2l1-3c2-1.2 2-1.2 4.4-2.3l2.4-1c2.2-.7 2.2-.7 5.2.3Z"/><path fill="#6185B4" d="m209 252 2 1-3 2v3l6 3c-3 1-3 1-5.3 0l-2.4-1.4-2.4-1.5-1.9-1.1c2.2-2.3 4-3.8 7-5Z"/><path fill="#D5EEFA" d="M510 203a41 41 0 0 1 15 7v2c-3.7-1.4-7-3-10.3-5l-2.7-1.7-2-1.3v-1Z"/><path fill="#97B3D5" d="m402 26 7 5-3 1-3-2c-3.4.3-6 1.4-9 3v-2c1.8-1.3 1.8-1.3 4-2.6l2.3-1.4 1.7-1Z"/><path fill="#333536" d="m715 336 5 2-2 1c-.7 2.5-.7 2.5-1 5l-3 1-1-1c.7-6.7.7-6.7 2-8Z"/><path fill="#E5F4FC" d="m599 143 2 1c-3.4 3.8-6 5.7-11 7l-2-2a648 648 0 0 1 11-6Z"/><path fill="#1A60B9" d="M565 353c3.3.7 5.8 1.9 8.8 3.6l2.4 1.3 1.8 1.1c-2.7 1-3.7 1.1-6.4 0-.7-.5-1.5-1-2.4-1.4l-2.4-1.5-1.8-1.1v-2Z"/><path fill="#222223" d="M862 328h2v5h-2l-2 9h-2c.6-5 2.1-9.3 4-14Z"/><path fill="#2B5E9C" d="M515 322a784.6 784.6 0 0 1 14 7l1 3-4-2-3-1.4a74.6 74.6 0 0 1-8-4.6v-2Z"/><path fill="#2F2F30" d="M1651 307c1.9.6 1.9.6 4 2 1.2 2.9 1.2 2.9 2 6l.6 2.4.4 1.6-2 1a56.2 56.2 0 0 1-5-13Z"/><path fill="#D4EBFA" d="M543 291v2h-2v2a36 36 0 0 1-10 4c1.2-3.7 2.1-4 5.4-5.7l2.5-1.3c2.1-1 2.1-1 4.1-1Z"/><path fill="#343434" d="M1168 272c3 1 4 1.6 6 4v3c-3 0-3 0-4.4-1.3l-3.6-4.7 2-1Z"/><path fill="#5593E5" d="m249.4 232.3 1.6.7-4 3-1-1-1 2c-2 .9-2 .9-4.6 1.6l-2.5.8-1.9.6v-2l5.3-3c1.4-1 1.4-1 2.9-1.8 2.8-1.2 2.8-1.2 5.2-.9Z"/><path fill="#2460A2" d="m519 420-5.9 3.5-3.3 2C507 427 507 427 505 427v-3h4v-2c6.6-3.1 6.6-3.1 10-2Z"/><path fill="#303030" d="M1164 350c0 2.7 0 4.5-1 7-2 1.3-2 1.3-4 2l-2-2c1.5-3.8 3.4-5.1 7-7Z"/><path fill="#232323" d="M1058 330h2v3h2l1-3 2 2c-.2 2-.2 2-1 4l-3 1c-3-3.6-3-3.6-3-7Z"/><path fill="#4D8CE2" d="m561 279-4.8 3-2.6 1.7C551 285 551 285 547 285v-2h4v-2a327.8 327.8 0 0 1 6-2.4c2-.6 2-.6 4 .4Z"/><path fill="#165DBB" d="m225.3 360.2 1.7.8-8 8c-.8-1.7-.8-1.7-1-4 4-5 4-5 7.3-4.8Z"/><path fill="#3365A1" d="M543 338c5 1.8 9.4 4.4 14 7-4 1.3-5 .3-8.7-1.4l-3-1.5-2.3-1.1v-3Z"/><path fill="#303030" d="m1100 161 2 4-5 3-3-3 1-3 4 1 1-2Z"/><path fill="#9CB7D2" d="m215 134 2 1c-5.6 4-5.6 4-9 4v2h-2v2l-3-1v-2a762.8 762.8 0 0 1 9.2-4.8l2.8-1.2Z"/><path fill="#E6F4FC" d="M396 28v3l-12 6c1.3-4 3-4.3 6.6-6.2A728054719 728054719 0 0 1 396 28Z"/><path fill="#32649F" d="m230 354 1 2c-1 2-1 2-3 4-2.7.7-5.2.8-8 1 3.2-2.6 6.4-5 10-7Z"/><path fill="#0B57BE" d="M365 351c4.8 1.6 8.8 4.3 13 7-3 1-3 1-5.5-.1l-2.7-1.7-2.7-1.7-2.1-1.5v-2Z"/><path fill="#478BE8" d="M216 252v10l-3-1-1-6 4-3Z"/><path fill="#4F8BDA" d="M534 220c5 1.8 9.4 4.4 14 7l-3 2-1-3-7-2-3-2v-2Z"/><path fill="#E6F4FD" d="M211 147a72 72 0 0 1 12 6v1c-2.3.2-2.3.2-5 0-1.6-1.4-1.6-1.4-3-3-2.1-1.2-2.1-1.2-4-2v-2Z"/><path fill="#D7EFFB" d="m372 470 12 6-2 2-3-1v-2l-3-.8-3-1.2-1-3Z"/><path fill="#1260BD" d="m544 400 2 1v2l-8 4-2-2c1-2 1-2 4-3l3-1 1-1Z"/><path fill="#2A62A8" d="m580 384-4.9 3-2.7 1.7C570 390 570 390 568 390c0-2 0-2 1.1-3.5 3.5-2.8 6.6-4 10.9-2.5Z"/><path fill="#D9EEFA" d="m562 346 6 2v3l4 1-1 2-10-6 1-2Z"/><path fill="#303032" d="m1660 322 3 1a32 32 0 0 1 2 5l-3 2c-1.6-2.3-1.6-2.3-3-5l1-3Z"/><path fill="#CEE9FB" d="m360 463 12 6v1h-5v-2l-2.4-.3-2.6-.7-2-4Z"/><path fill="#D8EEFA" d="m512.2 424.4 1.8.6c-4.3 4-4.3 4-7.8 4.3l-2.2-.3c5-5.2 5-5.2 8.2-4.6Z"/><path fill="#455876" d="M207 368v5h3v2c-3-.6-5.4-1.6-8-3v-2c3.9-2 3.9-2 5-2Z"/><path fill="#333" d="M1025 330c1.7 2.6 2.4 4 3 7-3.7-1.2-4.8-1.7-7-5l4-2Z"/><path fill="#D5F0FC" d="M519 305c-.2 1.9-.2 1.9-1 4-2.6 1.5-4.2 2.2-7.2 1.5l-1.8-.5a617 617 0 0 1 3.9-2.5l2.2-1.4c1.9-1.1 1.9-1.1 3.9-1.1Z"/><path fill="#5C90DA" d="M267 293c4.4.8 8.7 1.9 13 3v3l-4.8-1.3-2.7-.8c-2.6-1-3.8-1.9-5.5-3.9Z"/><path fill="#333" d="m892 253 4 1-2 7-2 1c-1.1-5.6-1.1-5.6 0-9Z"/><path fill="#5996E4" d="M423 246v5l-9 1c6-6 6-6 9-6Z"/><path fill="#CDEAF9" d="M485 440c-1 3-1 3-4.4 4.8-3.6 1.2-3.6 1.2-6.6.2l4.4-2.5 2.4-1.4c2.2-1.1 2.2-1.1 4.2-1.1Z"/><path fill="#285B99" d="m279 326 2 1-2 3h-4v2l-4-1 3.9-2.6 2.2-1.4 1.9-1Z"/><path fill="#393939" d="m1157 264 7 4-3 2c-3.2-.9-3.2-.9-6-2l2-1v-3Z"/><path fill="#DBF1FB" d="m565 235 8 1 1 4c-3.8-1-6.5-2-9-5Z"/><path fill="#4286D6" d="M305 202c4.6 1.3 8.2 3 12 6v2c-10.5-5-10.5-5-12-8Z"/><path fill="#E5F3FB" d="m283 96-4.3 2.6-2.4 1.4c-2.3 1-2.3 1-5.3 0 3.8-3.1 7-5.7 12-4Z"/><path fill="#D0E9F8" d="m580 383 2 1-4 5-5-1 7-5Z"/><path fill="#0E5EC4" d="m569 384 2 1-1 3-6 1v-3l5-2Z"/><path fill="#CFE9F8" d="m599 372 2 1c-3 3.7-5.2 4.6-10 5 2.5-2.6 4.6-4.7 8-6Z"/><path fill="#DEF0FA" d="m220 358 2 2-12 6v-2c2.2-1.5 2.2-1.5 5-3.1l2.8-1.7 2.2-1.2Z"/><path fill="#D1EAF8" d="M509 318c6.4.5 6.4.5 9.4 3l1.6 2-2 1c-2.2-1-2.2-1-4.6-2.4l-2.5-1.5-1.9-1.1v-1Z"/><path fill="#5089D6" d="M208 254c2 .7 2 .7 4 2 .8 2.6.8 2.6 1 5l-6-3 1-4Z"/><path fill="#D8EFFB" d="m260 224-4.4 2.5-2.4 1.4C251 229 251 229 249 229v-2l4-1v-2c3-1 3.9-1 7 0Z"/><path fill="#A5C6F3" d="m300.6 193.9 2.4.1 1 4-3 1v-2l-5-1c2-2 2-2 4.6-2.1Z"/><path fill="#E5F3FC" d="m555 169-1 3h-2l-1 2c-1.9 1.2-1.9 1.2-4 2l-3-1 4.4-3 2.4-1.7c2.2-1.3 2.2-1.3 4.2-1.3Z"/><path fill="#9EBFF1" d="m270 104 2 1c-.7 2-.7 2-2 4-2.4.7-2.4.7-5 1l-4 1c2.7-3 5.4-5.2 9-7Z"/><path fill="#D1ECFA" d="M473 447c0 2 0 2-1.1 3.6-2.7 2-4.7 1.6-7.9 1.4 2.5-2.8 5-5 9-5Z"/><path fill="#D6EBF9" d="M288 422c3.8 1.4 7.4 3.2 11 5a9 9 0 0 1-6.6.3c-2.7-1.5-3.4-2.5-4.4-5.3Z"/><path fill="#33669D" d="m580 359 11 5-4 2-1-3c-2-.7-2-.7-4-1l-2-1v-2Z"/><path fill="#0B57BE" d="M381 362c5 .5 8 2 12 5l-3 1c-3-1.8-3-1.8-6-4l-3-2Z"/><path fill="#D6EDFA" d="M525 327c6.4.5 6.4.5 9.4 3l1.6 2c-3.2 0-4.4-.5-7.2-2l-2.2-1.1-1.6-.9v-1Z"/><path fill="#D7EEFB" d="m289 317 4 2-10 5v-3h4l2-4Z"/><path fill="#C9EBFD" d="m507 311 2 1-2 5-5-2v-2l5-2Z"/><path fill="#6894C3" d="m597 254 4 2v2c-2.8 1.6-2.8 1.6-6 3l-3-1c3-2 3-2 6-2l-1-4Z"/><path fill="#5493E5" d="m233.3 241.3 1.7.7-2.3.8a15.3 15.3 0 0 0-5.7 4.2l-3 1c1.6-4.2 4.5-7.3 9.3-6.7Z"/><path fill="#E2F2FB" d="m524 186 2 1c-2 3-2.7 3.8-6 5l-4-1 3.9-2.6 2.2-1.4 1.9-1Z"/><path fill="#9DB6D7" d="m592 136 9 4v3h-2l-1-2-6-2v-3Z"/><path fill="#202020" d="M1083 341c3.4 1.4 5.5 3.3 8 6l-1 2a35.2 35.2 0 0 1-7-6v-2Z"/><path fill="#D4ECF8" d="m536 333 7 1v2l2 1-2 1c-2.5-1.1-4.7-2.6-7-4v-1Z"/><path fill="#EBF9FE" d="m509 311 2 1v4l1 2h-5v-5l2-2Z"/><path fill="#D8EEFB" d="m226 240 4 1-4.4 2.5-2.4 1.4C221 246 221 246 219 246v-2l3-1.4c2.8-1.3 2.8-1.3 4-2.6Z"/><path fill="#E4F3FC" d="m569 160 2 1-4 5-5-1 7-5Z"/><path fill="#E0F1FB" d="M459 455v2h-3l-1 6h-3c2.3-8 2.3-8 7-8Z"/><path fill="#D4EBF9" d="m336 449 8 4-4 2a90.5 90.5 0 0 1-4-4v-2Z"/><path fill="#D8ECF9" d="M323 442c3.6 1.3 5.2 2.2 8 5l-9-2 1-3Z"/><path fill="#DBEFFB" d="m265 408 8 4-3 2c-2-.8-2-.8-4-2l-1-4Z"/><path fill="#D4EDFA" d="M552 401v3l-6 2v-3c3.8-2 3.8-2 6-2Z"/><path fill="#323233" d="m869 353 3 1-2 6h-3l2-7Z"/><path fill="#D7EEFB" d="m253 342-11 6c2.4-4.9 5.4-7.9 11-6Z"/><path fill="#1154B3" d="m300 314 5 1 1 2-7 1 1-4Z"/><path fill="#353535" d="M1701 190c1.9 3.1 2.2 5.4 2 9h-2l-2-7h2v-2Z"/><path fill="#212122" d="M949 146a105 105 0 0 1 5 4v2c-1.9-.3-1.9-.3-4-1-1.3-2-1.3-2-2-4l1-1Z"/><path fill="#D7EFFC" d="M345 455c3.5 1.2 6.1 2.7 9 5-3.4-.3-3.4-.3-7-1-1.4-2-1.4-2-2-4Z"/><path fill="#EDFAFD" d="M480 446c-2.4 2.4-3.8 2.5-7 3v-3c3-1 3.9-1 7 0Zm-9 3 2 1h-3l1-1Z"/><path fill="#343434" d="M1058 333c2.8 2 3 3.1 3.7 6.7l.3 3.3a15.6 15.6 0 0 1-4-10ZM1012 299h2l1 6-3 2v-8Z"/><path fill="#5490E4" d="M251 281c6.6 1.5 6.6 1.5 8.4 4.1l.6 1.9a91 91 0 0 1-9-4v-2Z"/><path fill="#D5EDFB" d="M566 278c-1 3-1 3-4 4.7l-3 1.3-2-2c6.8-4 6.8-4 9-4Z"/><path fill="#323233" d="m1097 245 4 1v4l-5-2 1-3Z"/><path fill="#353535" d="m1090 240 3 1 1 5-5-2 1-4Z"/><path fill="#222" d="M1351 230c0 3.9-1.4 6.5-3 10-.7-1.7-.7-1.7-1-4 1.1-2.2 2.2-4.2 4-6Z"/><path fill="#DDF2FC" d="M544 223c3-.3 4.6-.2 7.3 1.4l1.7 1.6v2a28.9 28.9 0 0 1-9-5Z"/><path fill="#4E90E5" d="m274 216 2 1a78 78 0 0 1-6 7l-2-2 6-6Z"/><path fill="#D5EEFB" d="m272 217-10 5c1-3 1-3 3.9-4.8 3.1-1.2 3.1-1.2 6.1-.2Z"/><path fill="#5290E1" d="m289 207 2 1c-5.6 4.9-5.6 4.9-9 6 1.3-4 3.5-4.8 7-7Z"/><path fill="#D0EBFD" d="m505 197 2 1v2l3 3c-5.8-1.9-5.8-1.9-8-3v-2l3-1Z"/><path fill="#3C3D3D" d="m1173 175 6 1-2 4-4-3v-2Z"/><path fill="#1D5EB0" d="M377 470c5.8 1.9 5.8 1.9 8 3l-1 2c-3-.8-3-.8-6-2l-1-3Z"/><path fill="#135FBE" d="m523 329 4 1-3 5h-2v-3h2l-1-3Z"/><path fill="#0E56BA" d="M307 318c3.7.5 5.6 1.1 8 4-4 0-4 0-6.3-2l-1.7-2Z"/><path fill="#D5EEFD" d="m296 311 4 1-2 4-3-1 1-4Z"/><path fill="#2D2D2F" d="M1668 305h2l2 5h-4v-5Z"/><path fill="#4588ED" d="M222 264a37 37 0 0 1 9 3l-1 2-8-3v-2Z"/><path fill="#232321" d="M916 232h2v7h-3v-6l1-1Z"/><path fill="#DFF4FC" d="M559 228c.7 2 .7 2 1 4-3-1-4.8-1.8-7-4 3-1 3-1 6 0Z"/><path fill="#333534" d="M1184 179v4c-2.4.2-2.4.2-5 0l-2-3c4.8-1 4.8-1 7-1Z"/><path fill="#383838" d="m1163 165 7 5-1 3v-2l-1.8-.8a18.3 18.3 0 0 1-5.2-4.2l1-1Z"/><path fill="#323434" d="M1566 147h3v6l-3-1v-5Z"/><path fill="#E5F2FB" d="m272 102-9 5c2-4 2-4 4.5-5.3 2.5-.7 2.5-.7 4.5.3Z"/><path fill="#9CBDEE" d="m521 97 6 3-4 2-2-1v-4Z"/><path fill="#E2F3FC" d="m478 70 4.4 1.3 2.5.8 2.1.9 1 3a48.4 48.4 0 0 1-10-5v-1Z"/><path fill="#99BBEC" d="m391 34 3 1-2 3c-2.6.2-2.6.2-5 0l4-4Z"/></svg>